<?xml version="1.0"?>
<svg version="1.1" xmlns="http://www.w3.org/2000/svg" width="400" height="200" style=""><path fill="#000000" d="M29.314453125,111.23828125q0,2.70703125-1.9482421875,4.265625t-5.4208984375,1.55859375q-3.19921875,0-5.66015625-1.203125l0-3.9375q2.0234375,0.90234375,3.4248046875,1.271484375t2.5634765625,0.369140625q1.39453125,0,2.1396484375-0.533203125t0.7451171875-1.5859375q0-0.587890625-0.328125-1.0458984375t-0.9638671875-0.8818359375t-2.5908203125-1.353515625q-1.83203125-0.861328125-2.748046875-1.654296875t-1.462890625-1.845703125t-0.546875-2.4609375q0-2.65234375,1.7978515625-4.169921875t4.9697265625-1.517578125q1.55859375,0,2.9736328125,0.369140625t2.9599609375,1.0390625l-1.3671875,3.294921875q-1.599609375-0.65625-2.6455078125-0.916015625t-2.0576171875-0.259765625q-1.203125,0-1.845703125,0.560546875t-0.642578125,1.462890625q0,0.560546875,0.259765625,0.9775390625t0.8271484375,0.806640625t2.6865234375,1.4013671875q2.802734375,1.33984375,3.841796875,2.6865234375t1.0390625,3.3017578125z M40.86404296875,104.18359375q-1.326171875,0-2.078125,0.8408203125t-0.861328125,2.3857421875l5.8515625,0q-0.02734375-1.544921875-0.806640625-2.3857421875t-2.10546875-0.8408203125z M41.45193359375,117.0625q-3.69140625,0-5.76953125-2.037109375t-2.078125-5.76953125q0-3.841796875,1.9208984375-5.9404296875t5.3115234375-2.0986328125q3.240234375,0,5.044921875,1.845703125t1.8046875,5.099609375l0,2.0234375l-9.857421875,0q0.068359375,1.77734375,1.052734375,2.775390625t2.76171875,0.998046875q1.380859375,0,2.611328125-0.287109375t2.5703125-0.916015625l0,3.2265625q-1.09375,0.546875-2.337890625,0.8134765625t-3.03515625,0.2666015625z M59.2085546875,117.0625q-7.13671875,0-7.13671875-7.833984375q0-3.896484375,1.94140625-5.9541015625t5.564453125-2.0576171875q2.65234375,0,4.7578125,1.0390625l-1.23046875,3.2265625q-0.984375-0.396484375-1.83203125-0.6494140625t-1.6953125-0.2529296875q-3.25390625,0-3.25390625,4.62109375q0,4.484375,3.25390625,4.484375q1.203125,0,2.228515625-0.3212890625t2.05078125-1.0048828125l0,3.568359375q-1.01171875,0.642578125-2.0439453125,0.888671875t-2.6044921875,0.24609375z M80.15072265625,116.7890625l-0.560546875-1.955078125l-0.21875,0q-0.669921875,1.06640625-1.900390625,1.6474609375t-2.802734375,0.5810546875q-2.693359375,0-4.060546875-1.4423828125t-1.3671875-4.1494140625l0-9.966796875l4.169921875,0l0,8.927734375q0,1.654296875,0.587890625,2.4814453125t1.873046875,0.8271484375q1.75,0,2.529296875-1.1689453125t0.779296875-3.8759765625l0-7.19140625l4.169921875,0l0,15.28515625l-3.19921875,0z M101.776484375,111.23828125q0,2.70703125-1.9482421875,4.265625t-5.4208984375,1.55859375q-3.19921875,0-5.66015625-1.203125l0-3.9375q2.0234375,0.90234375,3.4248046875,1.271484375t2.5634765625,0.369140625q1.39453125,0,2.1396484375-0.533203125t0.7451171875-1.5859375q0-0.587890625-0.328125-1.0458984375t-0.9638671875-0.8818359375t-2.5908203125-1.353515625q-1.83203125-0.861328125-2.748046875-1.654296875t-1.462890625-1.845703125t-0.546875-2.4609375q0-2.65234375,1.7978515625-4.169921875t4.9697265625-1.517578125q1.55859375,0,2.9736328125,0.369140625t2.9599609375,1.0390625l-1.3671875,3.294921875q-1.599609375-0.65625-2.6455078125-0.916015625t-2.0576171875-0.259765625q-1.203125,0-1.845703125,0.560546875t-0.642578125,1.462890625q0,0.560546875,0.259765625,0.9775390625t0.8271484375,0.806640625t2.6865234375,1.4013671875q2.802734375,1.33984375,3.841796875,2.6865234375t1.0390625,3.3017578125z M113.32607421875,104.18359375q-1.326171875,0-2.078125,0.8408203125t-0.861328125,2.3857421875l5.8515625,0q-0.02734375-1.544921875-0.806640625-2.3857421875t-2.10546875-0.8408203125z M113.91396484375,117.0625q-3.69140625,0-5.76953125-2.037109375t-2.078125-5.76953125q0-3.841796875,1.9208984375-5.9404296875t5.3115234375-2.0986328125q3.240234375,0,5.044921875,1.845703125t1.8046875,5.099609375l0,2.0234375l-9.857421875,0q0.068359375,1.77734375,1.052734375,2.775390625t2.76171875,0.998046875q1.380859375,0,2.611328125-0.287109375t2.5703125-0.916015625l0,3.2265625q-1.09375,0.546875-2.337890625,0.8134765625t-3.03515625,0.2666015625z M133.9948046875,101.216796875q0.84765625,0,1.408203125,0.123046875l-0.314453125,3.91015625q-0.505859375-0.13671875-1.23046875-0.13671875q-1.99609375,0-3.1103515625,1.025390625t-1.1142578125,2.87109375l0,7.779296875l-4.169921875,0l0-15.28515625l3.158203125,0l0.615234375,2.5703125l0.205078125,0q0.7109375-1.28515625,1.9208984375-2.0712890625t2.6318359375-0.7861328125z M143.73970703125,116.7890625l-5.82421875-15.28515625l4.361328125,0l2.953125,8.708984375q0.4921875,1.654296875,0.615234375,3.130859375l0.08203125,0q0.068359375-1.3125,0.615234375-3.130859375l2.939453125-8.708984375l4.361328125,0l-5.82421875,15.28515625l-4.279296875,0z M164.285390625,104.18359375q-1.326171875,0-2.078125,0.8408203125t-0.861328125,2.3857421875l5.8515625,0q-0.02734375-1.544921875-0.806640625-2.3857421875t-2.10546875-0.8408203125z M164.87328125,117.0625q-3.69140625,0-5.76953125-2.037109375t-2.078125-5.76953125q0-3.841796875,1.9208984375-5.9404296875t5.3115234375-2.0986328125q3.240234375,0,5.044921875,1.845703125t1.8046875,5.099609375l0,2.0234375l-9.857421875,0q0.068359375,1.77734375,1.052734375,2.775390625t2.76171875,0.998046875q1.380859375,0,2.611328125-0.287109375t2.5703125-0.916015625l0,3.2265625q-1.09375,0.546875-2.337890625,0.8134765625t-3.03515625,0.2666015625z"/><path fill="#" d="M193.54982421875,111.23828125q0,2.70703125-1.9482421875,4.265625t-5.4208984375,1.55859375q-3.19921875,0-5.66015625-1.203125l0-3.9375q2.0234375,0.90234375,3.4248046875,1.271484375t2.5634765625,0.369140625q1.39453125,0,2.1396484375-0.533203125t0.7451171875-1.5859375q0-0.587890625-0.328125-1.0458984375t-0.9638671875-0.8818359375t-2.5908203125-1.353515625q-1.83203125-0.861328125-2.748046875-1.654296875t-1.462890625-1.845703125t-0.546875-2.4609375q0-2.65234375,1.7978515625-4.169921875t4.9697265625-1.517578125q1.55859375,0,2.9736328125,0.369140625t2.9599609375,1.0390625l-1.3671875,3.294921875q-1.599609375-0.65625-2.6455078125-0.916015625t-2.0576171875-0.259765625q-1.203125,0-1.845703125,0.560546875t-0.642578125,1.462890625q0,0.560546875,0.259765625,0.9775390625t0.8271484375,0.806640625t2.6865234375,1.4013671875q2.802734375,1.33984375,3.841796875,2.6865234375t1.0390625,3.3017578125z M196.5818359375,101.50390625l4.56640625,0l2.884765625,8.599609375q0.369140625,1.12109375,0.505859375,2.65234375l0.08203125,0q0.150390625-1.408203125,0.587890625-2.65234375l2.830078125-8.599609375l4.470703125,0l-6.466796875,17.240234375q-0.888671875,2.392578125-2.5361328125,3.58203125t-3.8486328125,1.189453125q-1.080078125,0-2.119140625-0.232421875l0-3.30859375q0.751953125,0.177734375,1.640625,0.177734375q1.107421875,0,1.9345703125-0.6767578125t1.2919921875-2.0439453125l0.24609375-0.751953125z M227.28572265625,112.25q0,2.3515625-1.6337890625,3.58203125t-4.8876953125,1.23046875q-1.66796875,0-2.84375-0.2255859375t-2.201171875-0.6630859375l0-3.4453125q1.162109375,0.546875,2.6181640625,0.916015625t2.5634765625,0.369140625q2.26953125,0,2.26953125-1.3125q0-0.4921875-0.30078125-0.7998046875t-1.0390625-0.697265625t-1.96875-0.9091796875q-1.763671875-0.73828125-2.5908203125-1.3671875t-1.203125-1.4423828125t-0.3759765625-2.0029296875q0-2.037109375,1.5791015625-3.1513671875t4.4775390625-1.1142578125q2.76171875,0,5.373046875,1.203125l-1.2578125,3.0078125q-1.1484375-0.4921875-2.146484375-0.806640625t-2.037109375-0.314453125q-1.845703125,0-1.845703125,0.998046875q0,0.560546875,0.5947265625,0.970703125t2.6044921875,1.216796875q1.791015625,0.724609375,2.625,1.353515625t1.23046875,1.44921875t0.396484375,1.955078125z M238.903671875,113.740234375q1.09375,0,2.625-0.478515625l0,3.103515625q-1.55859375,0.697265625-3.828125,0.697265625q-2.501953125,0-3.6435546875-1.2646484375t-1.1416015625-3.7939453125l0-7.369140625l-1.99609375,0l0-1.763671875l2.296875-1.39453125l1.203125-3.2265625l2.666015625,0l0,3.25390625l4.279296875,0l0,3.130859375l-4.279296875,0l0,7.369140625q0,0.888671875,0.4990234375,1.3125t1.3193359375,0.423828125z M252.87318359375,104.18359375q-1.326171875,0-2.078125,0.8408203125t-0.861328125,2.3857421875l5.8515625,0q-0.02734375-1.544921875-0.806640625-2.3857421875t-2.10546875-0.8408203125z M253.46107421875,117.0625q-3.69140625,0-5.76953125-2.037109375t-2.078125-5.76953125q0-3.841796875,1.9208984375-5.9404296875t5.3115234375-2.0986328125q3.240234375,0,5.044921875,1.845703125t1.8046875,5.099609375l0,2.0234375l-9.857421875,0q0.068359375,1.77734375,1.052734375,2.775390625t2.76171875,0.998046875q1.380859375,0,2.611328125-0.287109375t2.5703125-0.916015625l0,3.2265625q-1.09375,0.546875-2.337890625,0.8134765625t-3.03515625,0.2666015625z M278.6962109375,116.7890625l-4.169921875,0l0-8.927734375q0-1.654296875-0.5537109375-2.4814453125t-1.7431640625-0.8271484375q-1.599609375,0-2.32421875,1.17578125t-0.724609375,3.869140625l0,7.19140625l-4.169921875,0l0-15.28515625l3.185546875,0l0.560546875,1.955078125l0.232421875,0q0.615234375-1.052734375,1.77734375-1.6474609375t2.666015625-0.5947265625q3.431640625,0,4.6484375,2.2421875l0.369140625,0q0.615234375-1.06640625,1.8115234375-1.654296875t2.7001953125-0.587890625q2.59765625,0,3.9306640625,1.3330078125t1.3330078125,4.2724609375l0,9.966796875l-4.18359375,0l0-8.927734375q0-1.654296875-0.5537109375-2.4814453125t-1.7431640625-0.8271484375q-1.53125,0-2.2900390625,1.09375t-0.7587890625,3.47265625l0,7.669921875z M305.09345703125,112.25q0,2.3515625-1.6337890625,3.58203125t-4.8876953125,1.23046875q-1.66796875,0-2.84375-0.2255859375t-2.201171875-0.6630859375l0-3.4453125q1.162109375,0.546875,2.6181640625,0.916015625t2.5634765625,0.369140625q2.26953125,0,2.26953125-1.3125q0-0.4921875-0.30078125-0.7998046875t-1.0390625-0.697265625t-1.96875-0.9091796875q-1.763671875-0.73828125-2.5908203125-1.3671875t-1.203125-1.4423828125t-0.3759765625-2.0029296875q0-2.037109375,1.5791015625-3.1513671875t4.4775390625-1.1142578125q2.76171875,0,5.373046875,1.203125l-1.2578125,3.0078125q-1.1484375-0.4921875-2.146484375-0.806640625t-2.037109375-0.314453125q-1.845703125,0-1.845703125,0.998046875q0,0.560546875,0.5947265625,0.970703125t2.6044921875,1.216796875q1.791015625,0.724609375,2.625,1.353515625t1.23046875,1.44921875t0.396484375,1.955078125z"/></svg>
